<mxfile host="app.diagrams.net" modified="2020-12-15T06:53:54.262Z" agent="5.0 (Windows NT 10.0; Win64; x64) AppleWebKit/537.36 (KHTML, like Gecko) Chrome/87.0.4280.88 Safari/537.36" etag="QCAd9s0nEFviLoLPkM53" version="14.0.1" type="github">
  <diagram id="Rf4qBrpubOHbPNmQXItm" name="Page-1">
    <mxGraphModel dx="2889" dy="1097" grid="1" gridSize="10" guides="1" tooltips="1" connect="1" arrows="1" fold="1" page="1" pageScale="1" pageWidth="827" pageHeight="1169" math="0" shadow="0">
      <root>
        <mxCell id="0" />
        <mxCell id="1" parent="0" />
        <mxCell id="xnOvPEAhY6df5-fV51rV-3" value="" style="shape=umlLifeline;participant=umlActor;perimeter=lifelinePerimeter;whiteSpace=wrap;html=1;container=1;collapsible=0;recursiveResize=0;verticalAlign=top;spacingTop=36;outlineConnect=0;" parent="1" vertex="1">
          <mxGeometry x="-160" y="60" width="20" height="670" as="geometry" />
        </mxCell>
        <mxCell id="xnOvPEAhY6df5-fV51rV-11" value="" style="html=1;points=[];perimeter=orthogonalPerimeter;" parent="xnOvPEAhY6df5-fV51rV-3" vertex="1">
          <mxGeometry x="5" y="50" width="10" height="600" as="geometry" />
        </mxCell>
        <mxCell id="xnOvPEAhY6df5-fV51rV-4" value=":Bread" style="shape=umlLifeline;perimeter=lifelinePerimeter;whiteSpace=wrap;html=1;container=1;collapsible=0;recursiveResize=0;outlineConnect=0;" parent="1" vertex="1">
          <mxGeometry x="50" y="60" width="100" height="670" as="geometry" />
        </mxCell>
        <mxCell id="xnOvPEAhY6df5-fV51rV-5" value=":Cheese" style="shape=umlLifeline;perimeter=lifelinePerimeter;whiteSpace=wrap;html=1;container=1;collapsible=0;recursiveResize=0;outlineConnect=0;" parent="1" vertex="1">
          <mxGeometry x="180" y="60" width="100" height="670" as="geometry" />
        </mxCell>
        <mxCell id="xnOvPEAhY6df5-fV51rV-12" value="" style="html=1;points=[];perimeter=orthogonalPerimeter;" parent="xnOvPEAhY6df5-fV51rV-5" vertex="1">
          <mxGeometry x="45" y="130" width="10" height="50" as="geometry" />
        </mxCell>
        <mxCell id="xnOvPEAhY6df5-fV51rV-6" value=":Topping" style="shape=umlLifeline;perimeter=lifelinePerimeter;whiteSpace=wrap;html=1;container=1;collapsible=0;recursiveResize=0;outlineConnect=0;" parent="1" vertex="1">
          <mxGeometry x="314" y="60" width="100" height="660" as="geometry" />
        </mxCell>
        <mxCell id="xnOvPEAhY6df5-fV51rV-14" value="" style="html=1;points=[];perimeter=orthogonalPerimeter;" parent="xnOvPEAhY6df5-fV51rV-6" vertex="1">
          <mxGeometry x="45" y="180" width="10" height="50" as="geometry" />
        </mxCell>
        <mxCell id="xnOvPEAhY6df5-fV51rV-7" value=":Sauce" style="shape=umlLifeline;perimeter=lifelinePerimeter;whiteSpace=wrap;html=1;container=1;collapsible=0;recursiveResize=0;outlineConnect=0;" parent="1" vertex="1">
          <mxGeometry x="460" y="60" width="100" height="660" as="geometry" />
        </mxCell>
        <mxCell id="xnOvPEAhY6df5-fV51rV-15" value="" style="html=1;points=[];perimeter=orthogonalPerimeter;" parent="xnOvPEAhY6df5-fV51rV-7" vertex="1">
          <mxGeometry x="45" y="230" width="10" height="50" as="geometry" />
        </mxCell>
        <mxCell id="xnOvPEAhY6df5-fV51rV-10" value=":Cart" style="shape=umlLifeline;perimeter=lifelinePerimeter;whiteSpace=wrap;html=1;container=1;collapsible=0;recursiveResize=0;outlineConnect=0;" parent="1" vertex="1">
          <mxGeometry x="820" y="60" width="100" height="660" as="geometry" />
        </mxCell>
        <mxCell id="xnOvPEAhY6df5-fV51rV-18" value="" style="html=1;points=[];perimeter=orthogonalPerimeter;" parent="xnOvPEAhY6df5-fV51rV-10" vertex="1">
          <mxGeometry x="45" y="440" width="10" height="200" as="geometry" />
        </mxCell>
        <mxCell id="xnOvPEAhY6df5-fV51rV-13" value="" style="html=1;points=[];perimeter=orthogonalPerimeter;" parent="1" vertex="1">
          <mxGeometry x="95" y="140" width="10" height="50" as="geometry" />
        </mxCell>
        <mxCell id="xnOvPEAhY6df5-fV51rV-19" value=":Menu" style="shape=umlLifeline;perimeter=lifelinePerimeter;whiteSpace=wrap;html=1;container=1;collapsible=0;recursiveResize=0;outlineConnect=0;" parent="1" vertex="1">
          <mxGeometry x="-70" y="60" width="100" height="670" as="geometry" />
        </mxCell>
        <mxCell id="xnOvPEAhY6df5-fV51rV-20" value="" style="html=1;points=[];perimeter=orthogonalPerimeter;" parent="1" vertex="1">
          <mxGeometry x="-25" y="110" width="10" height="40" as="geometry" />
        </mxCell>
        <mxCell id="xnOvPEAhY6df5-fV51rV-22" value=":Sandwich" style="shape=umlLifeline;perimeter=lifelinePerimeter;whiteSpace=wrap;html=1;container=1;collapsible=0;recursiveResize=0;outlineConnect=0;" parent="1" vertex="1">
          <mxGeometry x="610" y="60" width="100" height="660" as="geometry" />
        </mxCell>
        <mxCell id="xnOvPEAhY6df5-fV51rV-23" value="" style="html=1;points=[];perimeter=orthogonalPerimeter;" parent="xnOvPEAhY6df5-fV51rV-22" vertex="1">
          <mxGeometry x="45" y="50" width="10" height="470" as="geometry" />
        </mxCell>
        <mxCell id="xnOvPEAhY6df5-fV51rV-26" value="getSandwich()" style="html=1;verticalAlign=bottom;endArrow=block;exitX=1;exitY=0.55;exitDx=0;exitDy=0;exitPerimeter=0;" parent="1" source="xnOvPEAhY6df5-fV51rV-20" edge="1">
          <mxGeometry x="-0.3401" width="80" relative="1" as="geometry">
            <mxPoint x="70" y="130" as="sourcePoint" />
            <mxPoint x="660" y="132" as="targetPoint" />
            <Array as="points" />
            <mxPoint as="offset" />
          </mxGeometry>
        </mxCell>
        <mxCell id="xnOvPEAhY6df5-fV51rV-27" value="SelectBread()" style="html=1;verticalAlign=bottom;endArrow=block;" parent="1" source="xnOvPEAhY6df5-fV51rV-11" target="xnOvPEAhY6df5-fV51rV-4" edge="1">
          <mxGeometry x="-0.6443" width="80" relative="1" as="geometry">
            <mxPoint x="-130" y="170" as="sourcePoint" />
            <mxPoint x="69.5" y="170" as="targetPoint" />
            <Array as="points">
              <mxPoint x="160" y="170" />
            </Array>
            <mxPoint as="offset" />
          </mxGeometry>
        </mxCell>
        <mxCell id="xnOvPEAhY6df5-fV51rV-28" value="getBread()" style="html=1;verticalAlign=bottom;endArrow=block;exitX=1;exitY=0.6;exitDx=0;exitDy=0;exitPerimeter=0;entryX=0;entryY=0.128;entryDx=0;entryDy=0;entryPerimeter=0;" parent="1" source="xnOvPEAhY6df5-fV51rV-13" target="xnOvPEAhY6df5-fV51rV-23" edge="1">
          <mxGeometry x="-0.1817" y="3" width="80" relative="1" as="geometry">
            <mxPoint x="290" y="170" as="sourcePoint" />
            <mxPoint x="704.5" y="170" as="targetPoint" />
            <Array as="points" />
            <mxPoint as="offset" />
          </mxGeometry>
        </mxCell>
        <mxCell id="xnOvPEAhY6df5-fV51rV-29" value="SelectCheese()" style="html=1;verticalAlign=bottom;endArrow=block;exitX=0.1;exitY=0.182;exitDx=0;exitDy=0;exitPerimeter=0;" parent="1" source="xnOvPEAhY6df5-fV51rV-11" target="xnOvPEAhY6df5-fV51rV-5" edge="1">
          <mxGeometry x="-0.6141" y="-1" width="80" relative="1" as="geometry">
            <mxPoint x="-120" y="220" as="sourcePoint" />
            <mxPoint x="275" y="220" as="targetPoint" />
            <Array as="points">
              <mxPoint x="165.5" y="220" />
            </Array>
            <mxPoint as="offset" />
          </mxGeometry>
        </mxCell>
        <mxCell id="xnOvPEAhY6df5-fV51rV-30" value="getCheese()" style="html=1;verticalAlign=bottom;endArrow=block;exitX=1;exitY=0.6;exitDx=0;exitDy=0;exitPerimeter=0;" parent="1" source="xnOvPEAhY6df5-fV51rV-12" edge="1">
          <mxGeometry x="-0.4433" y="5" width="80" relative="1" as="geometry">
            <mxPoint x="510" y="220" as="sourcePoint" />
            <mxPoint x="660" y="220" as="targetPoint" />
            <Array as="points" />
            <mxPoint as="offset" />
          </mxGeometry>
        </mxCell>
        <mxCell id="xnOvPEAhY6df5-fV51rV-21" value="SelectMenu()" style="html=1;verticalAlign=bottom;endArrow=block;exitX=0.9;exitY=0.017;exitDx=0;exitDy=0;exitPerimeter=0;" parent="1" source="xnOvPEAhY6df5-fV51rV-11" target="xnOvPEAhY6df5-fV51rV-19" edge="1">
          <mxGeometry width="80" relative="1" as="geometry">
            <mxPoint x="-120" y="130" as="sourcePoint" />
            <mxPoint x="-70" y="130" as="targetPoint" />
          </mxGeometry>
        </mxCell>
        <mxCell id="xnOvPEAhY6df5-fV51rV-32" value="SelectTopping()" style="html=1;verticalAlign=bottom;endArrow=block;entryX=-0.1;entryY=0.36;entryDx=0;entryDy=0;entryPerimeter=0;" parent="1" source="xnOvPEAhY6df5-fV51rV-3" target="xnOvPEAhY6df5-fV51rV-14" edge="1">
          <mxGeometry width="80" relative="1" as="geometry">
            <mxPoint x="-120" y="260.0000000000001" as="sourcePoint" />
            <mxPoint x="513.5" y="261.1" as="targetPoint" />
            <Array as="points" />
          </mxGeometry>
        </mxCell>
        <mxCell id="xnOvPEAhY6df5-fV51rV-33" value="getTopping()" style="html=1;verticalAlign=bottom;endArrow=block;exitX=0.9;exitY=0.38;exitDx=0;exitDy=0;exitPerimeter=0;entryX=-0.1;entryY=0.313;entryDx=0;entryDy=0;entryPerimeter=0;" parent="1" source="xnOvPEAhY6df5-fV51rV-14" target="xnOvPEAhY6df5-fV51rV-23" edge="1">
          <mxGeometry width="80" relative="1" as="geometry">
            <mxPoint x="750" y="260" as="sourcePoint" />
            <mxPoint x="1706" y="260" as="targetPoint" />
            <Array as="points" />
          </mxGeometry>
        </mxCell>
        <mxCell id="xnOvPEAhY6df5-fV51rV-34" value="SelectSauce()" style="html=1;verticalAlign=bottom;endArrow=block;entryX=0;entryY=0.42;entryDx=0;entryDy=0;entryPerimeter=0;" parent="1" source="xnOvPEAhY6df5-fV51rV-3" target="xnOvPEAhY6df5-fV51rV-15" edge="1">
          <mxGeometry width="80" relative="1" as="geometry">
            <mxPoint x="-120" y="320.8299999999999" as="sourcePoint" />
            <mxPoint x="749" y="320" as="targetPoint" />
            <Array as="points" />
          </mxGeometry>
        </mxCell>
        <mxCell id="xnOvPEAhY6df5-fV51rV-35" value="getSauce()" style="html=1;verticalAlign=bottom;endArrow=block;exitX=1.3;exitY=0.4;exitDx=0;exitDy=0;exitPerimeter=0;entryX=0.2;entryY=0.428;entryDx=0;entryDy=0;entryPerimeter=0;" parent="1" source="xnOvPEAhY6df5-fV51rV-15" target="xnOvPEAhY6df5-fV51rV-23" edge="1">
          <mxGeometry width="80" relative="1" as="geometry">
            <mxPoint x="990" y="312.59000000000003" as="sourcePoint" />
            <mxPoint x="1707" y="310" as="targetPoint" />
            <Array as="points" />
          </mxGeometry>
        </mxCell>
        <mxCell id="xnOvPEAhY6df5-fV51rV-36" value="SelectSet()" style="html=1;verticalAlign=bottom;endArrow=block;entryX=0.2;entryY=0.519;entryDx=0;entryDy=0;entryPerimeter=0;" parent="1" source="xnOvPEAhY6df5-fV51rV-11" target="xnOvPEAhY6df5-fV51rV-23" edge="1">
          <mxGeometry width="80" relative="1" as="geometry">
            <mxPoint x="-136" y="385.9100000000001" as="sourcePoint" />
            <mxPoint x="890" y="380" as="targetPoint" />
            <Array as="points" />
          </mxGeometry>
        </mxCell>
        <mxCell id="xnOvPEAhY6df5-fV51rV-41" value="샌드위치 추가(Sandwich)" style="html=1;verticalAlign=bottom;endArrow=block;" parent="1" source="xnOvPEAhY6df5-fV51rV-22" target="xnOvPEAhY6df5-fV51rV-10" edge="1">
          <mxGeometry x="-0.0826" width="80" relative="1" as="geometry">
            <mxPoint x="1715" y="546" as="sourcePoint" />
            <mxPoint x="780" y="540" as="targetPoint" />
            <Array as="points">
              <mxPoint x="800" y="540" />
            </Array>
            <mxPoint as="offset" />
          </mxGeometry>
        </mxCell>
        <mxCell id="xnOvPEAhY6df5-fV51rV-44" value="Sandwich" style="html=1;verticalAlign=bottom;endArrow=open;dashed=1;endSize=8;exitX=-0.1;exitY=0.713;exitDx=0;exitDy=0;exitPerimeter=0;" parent="1" source="xnOvPEAhY6df5-fV51rV-18" target="xnOvPEAhY6df5-fV51rV-11" edge="1">
          <mxGeometry relative="1" as="geometry">
            <mxPoint x="1840" y="620" as="sourcePoint" />
            <mxPoint x="-150" y="640" as="targetPoint" />
          </mxGeometry>
        </mxCell>
        <mxCell id="xnOvPEAhY6df5-fV51rV-45" value="샌드위치 주문" style="shape=umlFrame;whiteSpace=wrap;html=1;" parent="1" vertex="1">
          <mxGeometry x="-200" y="20" width="1140" height="720" as="geometry" />
        </mxCell>
      </root>
    </mxGraphModel>
  </diagram>
</mxfile>
